<?xml version="1.0" encoding="UTF-8"?><svg id="Capa_2" xmlns="http://www.w3.org/2000/svg" viewBox="0 0 1073 489.73"><defs><style>.cls-1{fill:#fff;}</style></defs><g id="Capa_1-2"><g><path class="cls-1" d="M777.12,467.71c-4.28-3.9-7.72-7.71-10.31-11.43-2.6-3.71-4.28-6.32-5.02-7.81-4.46-9.66-8.46-18.3-11.99-25.92-3.54-7.61-7.34-17.19-11.43-28.71-8.92-23.41-17.84-47.11-26.76-71.08-8.92-23.97-18.12-48.78-27.59-74.42-9.48-25.64-19.42-52.31-29.82-80-10.41-27.68-21.37-56.95-32.89-87.8h-4.46c-1.49,2.6-3.62,5.95-6.41,10.03-2.79,4.09-6.23,8.36-10.31,12.82-4.09,4.46-8.83,8.74-14.22,12.82-5.39,4.09-11.43,7.62-18.12,10.59l5.58,12.26c-8.92,20.82-18.4,43.2-28.43,67.17-10.03,23.97-20.16,47.76-30.38,71.35-10.23,23.6-20.16,46.55-29.82,68.85-9.67,22.3-18.4,42.18-26.2,59.65-8.55,18.95-15.8,33.26-21.74,42.92-5.95,9.67-10.23,15.8-12.82,18.4-1.12,1.49-5.11,4.28-11.99,8.36-6.88,4.09-15.14,6.69-24.81,7.8v6.13h428.13v-6.69c-8.55-.37-15.98-2.04-22.3-5.02-6.32-2.97-11.62-6.41-15.89-10.31Z"/><path class="cls-1" d="M1062.74,286.96c-3.18-2.5-6.42-4.73-9.56-6.9-1.53-1.05-3.05-2.1-4.56-3.18-19.45-13.89-38.89-27.81-58.33-41.72-46.67-33.41-94.92-67.94-142.59-101.65-32.09-22.7-72.29-20.42-102.41,5.8-4.98,4.33-9.62,8.94-14.1,13.45l-.11-.11-7.79,7.6c-2.29,2.24-4.59,4.47-6.9,6.7-5.24,5.07-10.66,10.32-15.91,15.63-10.93,11.01-11.3,24.99-.95,35.61,5.36,5.5,10.69,11.02,16.03,16.54,17.88,18.5,36.37,37.62,55.48,55.64,20.19,19.05,46.34,24.81,73.63,16.25,.88-.28,1.44-.39,1.74-.43,.29,.23,.84,.72,1.72,1.71,25.79,28.97,57.44,37.38,93.99,25.02,.42-.1,1.34-.06,1.81,.07,16.48,9.9,33.49,14.85,51.24,14.85,20.75,0,42.52-6.77,65.66-20.31,7.16-4.2,11.58-11.09,12.11-18.91,.55-8.11-3.26-16.21-10.2-21.67Zm-13.05,21.55c-36.39,21.31-65.57,22.99-94.59,5.48-3.46-2.09-7.89-3.19-12.29-3.19-2.64,0-5.27,.4-7.67,1.21-28.62,9.68-50.38,3.89-70.55-18.76-5.18-5.82-12.87-11.94-26.53-7.67-19.91,6.25-37.37,2.46-51.9-11.25-18.74-17.67-37.05-36.61-54.76-54.93-5.36-5.54-10.71-11.08-16.09-16.6-1.08-1.11-1.25-1.71-1.26-1.71,.02-.26,.45-1.35,2.07-2.98,4.82-4.86,9.85-9.74,14.74-14.48l.21,.21,7.79-7.61c2.27-2.21,4.51-4.47,6.75-6.72,4.79-4.82,9.32-9.37,14.14-13.57,22.19-19.31,51.71-21.05,75.2-4.44,47.62,33.67,95.85,68.2,142.49,101.58,19.44,13.92,38.89,27.84,58.35,41.74,1.61,1.15,3.23,2.27,4.86,3.39,2.99,2.06,5.82,4.01,8.45,6.08,1.32,1.04,1.87,2.17,1.83,2.83-.04,.59-.8,1.12-1.26,1.39Z"/><path class="cls-1" d="M491.81,232.35c7.45-7.71,14.91-15.42,22.4-23.1,12.82-13.16,12.33-29.87-1.3-43.61-7.34-7.4-14.91-14.73-22.24-21.83-3.2-3.1-6.4-6.2-9.59-9.31l-7.9-7.71-.2,.2c-.44-.44-.87-.87-1.3-1.31-6.73-6.77-13.7-13.77-21.16-20.27-40.5-35.25-94.54-38.33-137.66-7.83-66.49,47.02-133.81,95.21-198.92,141.81-27.24,19.5-54.48,39-81.74,58.47-2.12,1.52-4.28,3-6.43,4.48-4.33,2.98-8.81,6.07-13.14,9.47-8.56,6.72-13.26,16.64-12.59,26.53,.65,9.46,6.03,17.83,14.77,22.94,31.58,18.49,61.26,27.72,89.5,27.72,24.16,0,47.28-6.76,69.63-20.25,1.05-.59,4.21-.88,5.76-.36,50.05,16.93,91.51,5.92,126.76-33.68,4.05-4.54,4.7-4.54,9.42-3.06,36.55,11.47,71.55,3.76,98.55-21.71,26.62-25.11,52.42-51.79,77.37-77.6Zm-169.32,78.27c-16.59-5.2-25.73,1.85-32.49,9.44-29.11,32.7-61.91,41.43-103.23,27.45-7.65-2.59-17.6-1.62-24.2,2.36-41.52,25.07-84.93,22.64-136.61-7.61-1.68-.99-3.72-2.72-3.91-5.42-.18-2.6,1.4-5.48,4.21-7.69,3.79-2.98,7.79-5.74,12.03-8.66,2.25-1.55,4.5-3.1,6.73-4.69,27.27-19.48,54.51-38.98,81.76-58.48,65.08-46.58,132.37-94.75,198.82-141.74,15.79-11.17,33.44-16.7,51.05-16.7,20.89,0,41.74,7.78,59.41,23.17,6.86,5.97,13.24,12.39,20,19.18,3.11,3.13,6.22,6.25,9.37,9.33l7.9,7.71,.28-.29c.58,.56,1.15,1.11,1.73,1.67,7.24,7.02,14.74,14.27,21.92,21.52,6.32,6.38,4.37,9.4,1.16,12.7-7.5,7.7-14.98,15.43-22.46,23.17-24.78,25.63-50.4,52.12-76.64,76.88-21.25,20.03-47.8,25.82-76.82,16.71Z"/><path class="cls-1" d="M558.41,23.01s-.04,.04-.06,.07c-.05,.14,.01,.07,.06-.07Z"/><path class="cls-1" d="M573.17,38.12c18.45,4.59,37.76,5.21,56.55,1.79,12.11-1.89,34.89-11.2,21.14-25.97-5.86-5.42-13.44-7.89-20.73-9.94-9.52-2.48-19.19-3.62-28.9-3.95-16.05-.37-55.81,1.25-57.48,22.8h7.35c.71,9.16,14.64,13.02,22.06,15.27Zm-14.71-15.27c0,.07-.03,.11-.05,.16,3.63-4.69,10.51-6.43,16.42-8.27,17.01-4.33,35.89-4.95,53.24-1.79,26.32,5.63,25.41,14.41,.41,21.59-8.79,2.32-18.01,3.44-27.24,3.76-11.78,.48-47.69-1.01-50.13-15.45h7.35Z"/></g></g></svg>