<svg width="3216" height="3216" viewBox="0 0 3216 3216" fill="none" xmlns="http://www.w3.org/2000/svg">
<rect width="3216" height="3216" rx="748" fill="#992653"/>
<path d="M2764.14 2305.23C2750.75 2293.03 2739.99 2281.11 2731.89 2269.47C2723.75 2257.87 2718.5 2249.7 2716.18 2245.04C2702.23 2214.82 2689.72 2187.79 2678.67 2163.95C2667.6 2140.14 2655.71 2110.17 2642.92 2074.13C2615.01 2000.89 2587.11 1926.74 2559.2 1851.75C2531.3 1776.76 2502.52 1699.14 2472.89 1618.92C2443.24 1538.71 2412.14 1455.27 2379.61 1368.64C2347.04 1282.04 2312.76 1190.47 2276.72 1093.95H2262.77C2258.11 1102.08 2251.44 1112.57 2242.71 1125.33C2233.99 1138.13 2223.22 1151.48 2210.46 1165.44C2197.67 1179.39 2182.84 1192.78 2165.98 1205.55C2149.11 1218.34 2130.22 1229.39 2109.29 1238.68L2126.75 1277.03C2098.84 1342.17 2069.19 1412.19 2037.81 1487.18C2006.43 1562.17 1974.74 1636.6 1942.77 1710.4C1910.77 1784.24 1879.71 1856.04 1849.49 1925.8C1819.24 1995.57 1791.93 2057.77 1767.52 2112.42C1740.78 2171.71 1718.1 2216.48 1699.52 2246.7C1680.9 2276.95 1667.51 2296.13 1659.41 2304.26C1655.91 2308.93 1643.42 2317.65 1621.9 2330.42C1600.38 2343.22 1574.54 2351.35 1544.29 2354.82V2374H2883.61V2353.07C2856.86 2351.91 2833.62 2346.69 2813.85 2337.36C2794.08 2328.07 2777.5 2317.31 2764.14 2305.11V2305.23Z" fill="white"/>
<path d="M1871.6 1568.9C1894.91 1544.78 1918.25 1520.66 1941.68 1496.63C1981.78 1455.46 1980.25 1403.18 1937.61 1360.19C1914.65 1337.04 1890.97 1314.11 1868.04 1291.89C1858.03 1282.2 1848.02 1272.5 1838.04 1262.77L1813.32 1238.65L1812.7 1239.27C1811.32 1237.9 1809.98 1236.55 1808.63 1235.17C1787.58 1213.99 1765.77 1192.09 1742.44 1171.76C1615.74 1061.48 1446.69 1051.84 1311.79 1147.26C1103.79 1294.37 893.195 1445.13 689.511 1590.92C604.296 1651.93 519.081 1712.94 433.804 1773.85C427.172 1778.6 420.414 1783.24 413.689 1787.87C400.143 1797.19 386.128 1806.86 372.583 1817.49C345.804 1838.52 331.101 1869.55 333.197 1900.49C335.231 1930.09 352.061 1956.28 379.402 1972.26C478.194 2030.11 571.042 2058.99 659.386 2058.99C734.965 2058.99 807.292 2037.84 877.209 1995.63C880.494 1993.79 890.379 1992.88 895.228 1994.51C1051.8 2047.47 1181.5 2013.03 1291.77 1889.14C1304.44 1874.93 1306.48 1874.93 1321.24 1879.56C1435.58 1915.45 1545.07 1891.33 1629.54 1811.64C1712.81 1733.08 1793.52 1649.61 1871.57 1568.87L1871.6 1568.9ZM1341.92 1813.77C1290.02 1797.5 1261.43 1819.56 1240.28 1843.3C1149.22 1945.61 1046.61 1972.92 917.345 1929.18C893.414 1921.08 862.287 1924.11 841.641 1936.57C711.753 2015 575.954 2007.4 414.283 1912.76C409.027 1909.66 402.646 1904.25 402.051 1895.8C401.488 1887.67 406.431 1878.66 415.221 1871.74C427.078 1862.42 439.591 1853.78 452.855 1844.65C459.894 1839.8 466.932 1834.95 473.908 1829.98C559.217 1769.03 644.432 1708.02 729.678 1647.02C933.269 1501.29 1143.77 1350.59 1351.65 1203.58C1401.04 1168.63 1456.26 1151.33 1511.35 1151.33C1576.7 1151.33 1641.92 1175.67 1697.2 1223.82C1718.66 1242.5 1738.62 1262.58 1759.77 1283.82C1769.5 1293.62 1779.22 1303.38 1789.08 1313.01L1813.79 1337.13L1814.67 1336.23C1816.48 1337.98 1818.27 1339.7 1820.08 1341.45C1842.73 1363.41 1866.19 1386.1 1888.65 1408.78C1908.42 1428.74 1902.32 1438.19 1892.28 1448.51C1868.82 1472.6 1845.42 1496.78 1822.02 1521C1744.5 1601.18 1664.35 1684.06 1582.27 1761.52C1515.79 1824.19 1432.73 1842.3 1341.95 1813.8L1341.92 1813.77Z" fill="white"/>
<path d="M2079.95 913.965C2079.95 913.965 2079.82 914.09 2079.76 914.184C2079.6 914.622 2079.79 914.403 2079.95 913.965Z" fill="white"/>
<path d="M2126.12 961.237C2183.84 975.597 2244.25 977.536 2303.03 966.837C2340.91 960.924 2412.17 931.797 2369.16 885.588C2350.83 868.631 2327.12 860.904 2304.31 854.49C2274.53 846.731 2244.28 843.165 2213.9 842.132C2163.69 840.975 2039.31 846.043 2034.09 913.463H2057.08C2059.3 942.121 2102.88 954.197 2126.09 961.237H2126.12ZM2080.1 913.463C2080.1 913.682 2080.01 913.808 2079.95 913.964C2091.3 899.291 2112.83 893.847 2131.31 888.091C2184.53 874.544 2243.59 872.604 2297.87 882.491C2380.2 900.105 2377.36 927.573 2299.15 950.036C2271.65 957.295 2242.81 960.799 2213.93 961.8C2177.08 963.301 2064.74 958.64 2057.11 913.463H2080.1Z" fill="white"/>
</svg>
